<svg xmlns="http://www.w3.org/2000/svg" viewBox="0 0 360 1200" fill="none">
  <defs>
    <linearGradient id="gearGlow" x1="0" y1="0" x2="1" y2="1">
      <stop offset="0" stop-color="#56C2FF" stop-opacity="0.34"/>
      <stop offset="1" stop-color="#7BF0C6" stop-opacity="0.12"/>
    </linearGradient>
  </defs>
  <g opacity="0.68">
    <path d="M18 142H128M16 236H114M14 330H138M22 446H124M18 566H146" stroke="#FFFFFF" stroke-opacity="0.09" stroke-width="2" stroke-linecap="round"/>
    <path d="M18 142H74M16 236H62M14 330H82M22 446H70M18 566H90" stroke="#56C2FF" stroke-opacity="0.22" stroke-width="2" stroke-linecap="round"/>
  </g>
  <g transform="translate(154 236)">
    <circle cx="0" cy="0" r="54" stroke="url(#gearGlow)" stroke-width="12"/>
    <circle cx="0" cy="0" r="23" stroke="#E8EEF7" stroke-opacity="0.22" stroke-width="6"/>
    <g fill="#56C2FF" fill-opacity="0.3">
      <rect x="-8" y="-86" width="16" height="22" rx="4"/>
      <rect x="-8" y="64" width="16" height="22" rx="4"/>
      <rect x="64" y="-8" width="22" height="16" rx="4"/>
      <rect x="-86" y="-8" width="22" height="16" rx="4"/>
      <rect x="46" y="-62" width="18" height="18" rx="4" transform="rotate(45 46 -62)"/>
      <rect x="46" y="44" width="18" height="18" rx="4" transform="rotate(45 46 44)"/>
      <rect x="-60" y="44" width="18" height="18" rx="4" transform="rotate(45 -60 44)"/>
      <rect x="-60" y="-62" width="18" height="18" rx="4" transform="rotate(45 -60 -62)"/>
    </g>
  </g>
  <g transform="translate(98 544)">
    <circle cx="0" cy="0" r="34" stroke="#7BF0C6" stroke-opacity="0.28" stroke-width="8"/>
    <circle cx="0" cy="0" r="13" stroke="#E8EEF7" stroke-opacity="0.18" stroke-width="4"/>
    <g fill="#7BF0C6" fill-opacity="0.24">
      <rect x="-6" y="-52" width="12" height="16" rx="3"/>
      <rect x="-6" y="36" width="12" height="16" rx="3"/>
      <rect x="36" y="-6" width="16" height="12" rx="3"/>
      <rect x="-52" y="-6" width="16" height="12" rx="3"/>
      <rect x="26" y="-38" width="13" height="13" rx="3" transform="rotate(45 26 -38)"/>
      <rect x="26" y="26" width="13" height="13" rx="3" transform="rotate(45 26 26)"/>
      <rect x="-38" y="26" width="13" height="13" rx="3" transform="rotate(45 -38 26)"/>
      <rect x="-38" y="-38" width="13" height="13" rx="3" transform="rotate(45 -38 -38)"/>
    </g>
  </g>
  <path d="M188 170C216 244 206 308 178 364C152 416 140 470 154 530" stroke="#56C2FF" stroke-opacity="0.18" stroke-width="3" stroke-linecap="round"/>
</svg>
